<?xml version="1.0" encoding="utf-8"?><!-- Uploaded to: SVG Repo, www.svgrepo.com, Generator: SVG Repo Mixer Tools -->
<svg width="800px" height="800px" viewBox="0 0 24 24" xmlns="http://www.w3.org/2000/svg" id="right-junction-sign" class="icon glyph"><path d="M8,20v1a1,1,0,0,1-2,0V20a1,1,0,0,1,2,0ZM3,19a1,1,0,0,0-1,1v1a1,1,0,0,0,2,0V20A1,1,0,0,0,3,19ZM7,5A1,1,0,0,0,8,4V3A1,1,0,0,0,6,3V4A1,1,0,0,0,7,5ZM3,5A1,1,0,0,0,4,4V3A1,1,0,0,0,2,3V4A1,1,0,0,0,3,5Zm17.72,5.46L15.64,6.23A1,1,0,0,0,14,7V9H8V8A1,1,0,0,0,7,7H3A1,1,0,0,0,2,8v8a1,1,0,0,0,1,1H7a1,1,0,0,0,1-1V15h6v2a1,1,0,0,0,.58.91A1,1,0,0,0,15,18a1,1,0,0,0,.64-.23l5.08-4.23a2,2,0,0,0,0-3.08Z" style="fill:#231f20"></path></svg>